<?xml version="1.0" encoding="UTF-8" standalone="no"?>
<!-- Created with Inkscape (http://www.inkscape.org/) -->

<svg
   xmlns:dc="http://purl.org/dc/elements/1.1/"
   xmlns:cc="http://creativecommons.org/ns#"
   xmlns:rdf="http://www.w3.org/1999/02/22-rdf-syntax-ns#"
   xmlns:svg="http://www.w3.org/2000/svg"
   xmlns="http://www.w3.org/2000/svg"
   xmlns:sodipodi="http://sodipodi.sourceforge.net/DTD/sodipodi-0.dtd"
   xmlns:inkscape="http://www.inkscape.org/namespaces/inkscape"
   version="1.1"
   id="svg2"
   width="426.66666"
   height="426.66666"
   viewBox="0 0 426.66666 426.66666"
   sodipodi:docname="lima.svg"
   inkscape:version="0.92.5 (2060ec1f9f, 2020-04-08)">
  <metadata
     id="metadata8">
    <rdf:RDF>
      <cc:Work
         rdf:about="">
        <dc:format>image/svg+xml</dc:format>
        <dc:type
           rdf:resource="http://purl.org/dc/dcmitype/StillImage" />
        <dc:title />
      </cc:Work>
    </rdf:RDF>
  </metadata>
  <defs
     id="defs6" />
  <sodipodi:namedview
     pagecolor="#ffffff"
     bordercolor="#666666"
     borderopacity="1"
     objecttolerance="10"
     gridtolerance="10"
     guidetolerance="10"
     inkscape:pageopacity="0"
     inkscape:pageshadow="2"
     inkscape:window-width="1584"
     inkscape:window-height="852"
     id="namedview4"
     showgrid="false"
     inkscape:zoom="1.10625"
     inkscape:cx="-30.801447"
     inkscape:cy="124.53611"
     inkscape:window-x="72"
     inkscape:window-y="27"
     inkscape:window-maximized="0"
     inkscape:current-layer="svg2" />
  <path
     style="fill:#00bf8c;fill-opacity:1;stroke-width:0.66666663"
     d="M 161.66666,374.60295 C 127.86792,372.80269 96.660538,363.94103 72.666666,349.33047 55.860184,339.09653 40.417127,324.5474 30.197066,309.31926 11.827588,281.94828 6.6100904,244.93589 16.72818,213.77238 c 9.259024,-28.5176 31.655513,-50.97407 59.884959,-60.04534 18.97784,-6.09835 33.562441,-6.11364 65.720191,-0.0689 20.37151,3.82926 24.75161,4.34188 37.09946,4.34188 13.45099,0 24.87735,-1.25586 36.21706,-3.98056 14.20173,-3.4124 23.53031,-7.06901 70.73526,-27.72674 28.65315,-12.53914 32.70899,-13.76857 49.42897,-14.98327 13.84927,-1.00615 24.0628,0.71166 35.97009,6.04979 20.24314,9.07516 36.30196,30.83322 42.53978,57.6371 7.02855,30.20167 1.9154,63.7198 -13.78082,90.33701 -13.55267,22.98225 -33.6062,43.44943 -58.97874,60.19532 -45.36187,29.93887 -95.22901,46.31658 -149.56439,49.12096 -14.24062,0.735 -15.70049,0.73276 -30.33334,-0.0467 z"
     id="path823" />
  <path
     style="fill:#ffffff;fill-opacity:1;stroke-width:0.66666663"
     d="m 197.95296,339.37576 c 8.26604,-1.55688 16.17675,-3.84659 23.65087,-6.82753 14.37322,-5.73256 27.13183,-14.02143 37.69791,-24.57084 6.10926,-6.09963 10.41223,-11.66345 9.47046,-12.2455 -0.31865,-0.19694 -3.10453,1.65782 -6.19084,4.12169 -29.54257,23.58443 -66.29232,33.3361 -104.58136,27.75099 -42.11768,-6.14359 -77.693788,-30.1414 -98.668491,-66.55671 -3.231016,-5.60954 -5.063893,-7.30027 -4.278251,-3.94644 2.154022,9.1953 9.664361,24.70361 16.092001,33.22882 21.140946,28.04003 51.163941,45.15054 88.307301,50.32753 7.65039,1.0663 29.98016,0.32275 38.5004,-1.28201 z"
     id="path4520" />
</svg>
